<?xml version="1.0" encoding="UTF-8" standalone="no"?>
<!DOCTYPE svg PUBLIC "-//W3C//DTD SVG 1.1//EN"
 "http://www.w3.org/Graphics/SVG/1.1/DTD/svg11.dtd">
<!-- Generated by graphviz version 15.0.0 (20260523.1842)
 -->
<!-- Title: maas_flow Pages: 1 -->
<svg width="1037pt" height="494pt"
 viewBox="0.00 0.00 1037.00 494.00" xmlns="http://www.w3.org/2000/svg" xmlns:xlink="http://www.w3.org/1999/xlink">
<g id="graph0" class="graph" transform="scale(1 1) rotate(0) translate(36 458.25)">
<title>maas_flow</title>
<polygon fill="white" stroke="none" points="-36,36 -36,-458.25 1001.38,-458.25 1001.38,36 -36,36"/>
<text xml:space="preserve" text-anchor="middle" x="482.69" y="-404.95" font-family="Helvetica,sans-Serif" font-size="14.00">MaaS Inference Flow — IPP Metering Integration</text>
<g id="clust1" class="cluster">
<title>cluster_gateway</title>
<polygon fill="#fff9c4" stroke="#f57f17" points="158,-211.5 158,-391.25 680,-391.25 680,-211.5 158,-211.5"/>
<text xml:space="preserve" text-anchor="middle" x="419" y="-376.8" font-family="Helvetica,sans-Serif" font-size="11.00" fill="#f57f17">OSAC AI Gateway (Envoy proxy, managed by Istio)</text>
<text xml:space="preserve" text-anchor="middle" x="419" y="-364.8" font-family="Helvetica,sans-Serif" font-size="11.00" fill="#f57f17">IPP ext_proc Plugin Chain</text>
</g>
<g id="clust2" class="cluster">
<title>cluster_cost</title>
<polygon fill="#e8f5e9" stroke="#2e7d32" points="8,-87.75 8,-167 445,-167 445,-87.75 8,-87.75"/>
<text xml:space="preserve" text-anchor="middle" x="226.5" y="-152.55" font-family="Helvetica,sans-Serif" font-size="11.00" fill="#2e7d32">Cost Event Consumer (our service)</text>
</g>
<!-- user -->
<g id="node1" class="node">
<title>user</title>
<path fill="#e1f5fe" stroke="#0277bd" d="M607.88,-135.38C607.88,-135.38 492.12,-135.38 492.12,-135.38 486.12,-135.38 480.12,-129.38 480.12,-123.38 480.12,-123.38 480.12,-111.38 480.12,-111.38 480.12,-105.38 486.12,-99.38 492.12,-99.38 492.12,-99.38 607.88,-99.38 607.88,-99.38 613.88,-99.38 619.88,-105.38 619.88,-111.38 619.88,-111.38 619.88,-123.38 619.88,-123.38 619.88,-129.38 613.88,-135.38 607.88,-135.38"/>
<text xml:space="preserve" text-anchor="middle" x="550" y="-113.5" font-family="Helvetica,sans-Serif" font-size="10.00">User (API key or K8s token)</text>
</g>
<!-- auth -->
<g id="node2" class="node">
<title>auth</title>
<path fill="#ffe0b2" stroke="#e65100" d="M850,-36C850,-36 636,-36 636,-36 630,-36 624,-30 624,-24 624,-24 624,-12 624,-12 624,-6 630,0 636,0 636,0 850,0 850,0 856,0 862,-6 862,-12 862,-12 862,-24 862,-24 862,-30 856,-36 850,-36"/>
<text xml:space="preserve" text-anchor="middle" x="743" y="-14.12" font-family="Helvetica,sans-Serif" font-size="10.00">Authorino — authenticate, inject X&#45;MaaS&#45;* headers</text>
</g>
<!-- user&#45;&gt;auth -->
<g id="edge1" class="edge">
<title>user&#45;&gt;auth</title>
<path fill="none" stroke="#0277bd" d="M584.5,-98.97C616.38,-82.88 663.9,-58.91 698.6,-41.4"/>
<polygon fill="#0277bd" stroke="#0277bd" points="699.77,-44.73 707.12,-37.1 696.61,-38.48 699.77,-44.73"/>
<text xml:space="preserve" text-anchor="middle" x="698.56" y="-62.2" font-family="Helvetica,sans-Serif" font-size="9.00" fill="#0277bd">1. inference request</text>
</g>
<!-- req_plugins -->
<g id="node3" class="node">
<title>req_plugins</title>
<path fill="#ffecb3" stroke="#f57f17" d="M659.75,-351.25C659.75,-351.25 318.25,-351.25 318.25,-351.25 312.25,-351.25 306.25,-345.25 306.25,-339.25 306.25,-339.25 306.25,-327.25 306.25,-327.25 306.25,-321.25 312.25,-315.25 318.25,-315.25 318.25,-315.25 659.75,-315.25 659.75,-315.25 665.75,-315.25 671.75,-321.25 671.75,-327.25 671.75,-327.25 671.75,-339.25 671.75,-339.25 671.75,-345.25 665.75,-351.25 659.75,-351.25"/>
<text xml:space="preserve" text-anchor="middle" x="489" y="-335.75" font-family="Helvetica,sans-Serif" font-size="10.00">Request plugins:</text>
<text xml:space="preserve" text-anchor="middle" x="489" y="-324.5" font-family="Helvetica,sans-Serif" font-size="10.00">maas&#45;headers&#45;guard → body&#45;field&#45;to&#45;header → api&#45;translation → apikey&#45;injection</text>
</g>
<!-- auth&#45;&gt;req_plugins -->
<g id="edge2" class="edge">
<title>auth&#45;&gt;req_plugins</title>
<path fill="none" stroke="#e65100" d="M798.57,-36.44C822.86,-47.14 848.97,-63.55 863,-87.75 901.06,-153.42 887.95,-205.32 831,-255.5 801.89,-281.15 716.94,-300.29 639,-313.04"/>
<polygon fill="#e65100" stroke="#e65100" points="638.86,-309.51 629.55,-314.55 639.97,-316.42 638.86,-309.51"/>
<text xml:space="preserve" text-anchor="middle" x="924.13" y="-181.07" font-family="Helvetica,sans-Serif" font-size="9.00" fill="#e65100">2. + identity headers</text>
</g>
<!-- metering_req -->
<g id="node4" class="node">
<title>metering_req</title>
<path fill="#c8e6c9" stroke="#2e7d32" d="M574.88,-255.5C574.88,-255.5 405.12,-255.5 405.12,-255.5 399.12,-255.5 393.12,-249.5 393.12,-243.5 393.12,-243.5 393.12,-231.5 393.12,-231.5 393.12,-225.5 399.12,-219.5 405.12,-219.5 405.12,-219.5 574.88,-219.5 574.88,-219.5 580.88,-219.5 586.88,-225.5 586.88,-231.5 586.88,-231.5 586.88,-243.5 586.88,-243.5 586.88,-249.5 580.88,-255.5 574.88,-255.5"/>
<text xml:space="preserve" text-anchor="middle" x="490" y="-239.62" font-family="Helvetica,sans-Serif" font-size="10.00">① external&#45;metering ON REQUEST</text>
<text xml:space="preserve" text-anchor="middle" x="490" y="-227.62" font-family="Helvetica,sans-Serif" font-size="10.00">checkBalance: has this user got budget?</text>
</g>
<!-- req_plugins&#45;&gt;metering_req -->
<g id="edge3" class="edge">
<title>req_plugins&#45;&gt;metering_req</title>
<path fill="none" stroke="#f57f17" d="M489.18,-315.05C489.33,-301.66 489.53,-282.77 489.69,-267.11"/>
<polygon fill="#f57f17" stroke="#f57f17" points="493.19,-267.45 489.8,-257.42 486.19,-267.38 493.19,-267.45"/>
<text xml:space="preserve" text-anchor="middle" x="530.4" y="-281.7" font-family="Helvetica,sans-Serif" font-size="9.00" fill="#f57f17">3. before forwarding</text>
</g>
<!-- llm -->
<g id="node7" class="node">
<title>llm</title>
<path fill="#f3e5f5" stroke="#7b1fa2" d="M829,-135.38C829,-135.38 675,-135.38 675,-135.38 669,-135.38 663,-129.38 663,-123.38 663,-123.38 663,-111.38 663,-111.38 663,-105.38 669,-99.38 675,-99.38 675,-99.38 829,-99.38 829,-99.38 835,-99.38 841,-105.38 841,-111.38 841,-111.38 841,-123.38 841,-123.38 841,-129.38 835,-135.38 829,-135.38"/>
<text xml:space="preserve" text-anchor="middle" x="752" y="-119.12" font-family="Helvetica,sans-Serif" font-size="10.00">LLM Provider</text>
<text xml:space="preserve" text-anchor="middle" x="752" y="-107.88" font-family="Helvetica,sans-Serif" font-size="10.00">(Anthropic, OpenAI, vLLM, llm&#45;katan)</text>
</g>
<!-- metering_req&#45;&gt;llm -->
<g id="edge6" class="edge">
<title>metering_req&#45;&gt;llm</title>
<path fill="none" stroke="#7b1fa2" d="M528.66,-219.07C575.04,-198.16 652.84,-163.08 703.28,-140.34"/>
<polygon fill="#7b1fa2" stroke="#7b1fa2" points="704.55,-143.61 712.23,-136.31 701.67,-137.23 704.55,-143.61"/>
<text xml:space="preserve" text-anchor="middle" x="664.12" y="-185.95" font-family="Helvetica,sans-Serif" font-size="9.00" fill="#7b1fa2">5. forward to provider</text>
<text xml:space="preserve" text-anchor="middle" x="664.12" y="-176.2" font-family="Helvetica,sans-Serif" font-size="9.00" fill="#7b1fa2">(or 429 if no budget)</text>
</g>
<!-- balance -->
<g id="node8" class="node">
<title>balance</title>
<path fill="#a5d6a7" stroke="#2e7d32" d="M424.88,-139C424.88,-139 237.12,-139 237.12,-139 231.12,-139 225.12,-133 225.12,-127 225.12,-127 225.12,-107.75 225.12,-107.75 225.12,-101.75 231.12,-95.75 237.12,-95.75 237.12,-95.75 424.88,-95.75 424.88,-95.75 430.88,-95.75 436.88,-101.75 436.88,-107.75 436.88,-107.75 436.88,-127 436.88,-127 436.88,-133 430.88,-139 424.88,-139"/>
<text xml:space="preserve" text-anchor="middle" x="331" y="-125.5" font-family="Helvetica,sans-Serif" font-size="10.00">Balance Check</text>
<text xml:space="preserve" text-anchor="middle" x="331" y="-114.25" font-family="Helvetica,sans-Serif" font-size="10.00">GET /customers/{id}/entitlements/{key}/value</text>
<text xml:space="preserve" text-anchor="middle" x="331" y="-103" font-family="Helvetica,sans-Serif" font-size="10.00">→ {hasAccess, balance, usage, overage}</text>
</g>
<!-- metering_req&#45;&gt;balance -->
<g id="edge4" class="edge">
<title>metering_req&#45;&gt;balance</title>
<path fill="none" stroke="#2e7d32" stroke-dasharray="5,2" d="M479.78,-219.14C471.26,-205.78 458.09,-187.54 443,-175 428.63,-163.07 411.33,-152.78 394.67,-144.37"/>
<polygon fill="#2e7d32" stroke="#2e7d32" points="396.3,-141.27 385.78,-140.04 393.24,-147.56 396.3,-141.27"/>
<text xml:space="preserve" text-anchor="middle" x="511.08" y="-181.07" font-family="Helvetica,sans-Serif" font-size="9.00" fill="#2e7d32">4. sync call: has budget?</text>
</g>
<!-- metering_resp -->
<g id="node5" class="node">
<title>metering_resp</title>
<path fill="#c8e6c9" stroke="#2e7d32" d="M338.38,-255.5C338.38,-255.5 177.62,-255.5 177.62,-255.5 171.62,-255.5 165.62,-249.5 165.62,-243.5 165.62,-243.5 165.62,-231.5 165.62,-231.5 165.62,-225.5 171.62,-219.5 177.62,-219.5 177.62,-219.5 338.38,-219.5 338.38,-219.5 344.38,-219.5 350.38,-225.5 350.38,-231.5 350.38,-231.5 350.38,-243.5 350.38,-243.5 350.38,-249.5 344.38,-255.5 338.38,-255.5"/>
<text xml:space="preserve" text-anchor="middle" x="258" y="-239.62" font-family="Helvetica,sans-Serif" font-size="10.00">② external&#45;metering ON RESPONSE</text>
<text xml:space="preserve" text-anchor="middle" x="258" y="-227.62" font-family="Helvetica,sans-Serif" font-size="10.00">reportUsage: user consumed N tokens</text>
</g>
<!-- metering_resp&#45;&gt;user -->
<g id="edge10" class="edge">
<title>metering_resp&#45;&gt;user</title>
<path fill="none" stroke="#0277bd" d="M248.24,-219.06C241.98,-205.29 236.9,-186.54 248,-175 255.98,-166.71 443.87,-169.91 455,-167 475.68,-161.59 497.01,-151.18 514.21,-141.38"/>
<polygon fill="#0277bd" stroke="#0277bd" points="515.68,-144.58 522.52,-136.49 512.12,-138.55 515.68,-144.58"/>
<text xml:space="preserve" text-anchor="middle" x="287" y="-181.07" font-family="Helvetica,sans-Serif" font-size="9.00" fill="#0277bd">9. response to user</text>
</g>
<!-- ingest -->
<g id="node9" class="node">
<title>ingest</title>
<path fill="#a5d6a7" stroke="#2e7d32" d="M169.62,-139C169.62,-139 28.38,-139 28.38,-139 22.38,-139 16.38,-133 16.38,-127 16.38,-127 16.38,-107.75 16.38,-107.75 16.38,-101.75 22.38,-95.75 28.38,-95.75 28.38,-95.75 169.62,-95.75 169.62,-95.75 175.62,-95.75 181.62,-101.75 181.62,-107.75 181.62,-107.75 181.62,-127 181.62,-127 181.62,-133 175.62,-139 169.62,-139"/>
<text xml:space="preserve" text-anchor="middle" x="99" y="-125.5" font-family="Helvetica,sans-Serif" font-size="10.00">Ingest CloudEvent</text>
<text xml:space="preserve" text-anchor="middle" x="99" y="-114.25" font-family="Helvetica,sans-Serif" font-size="10.00">POST /api/v1/events</text>
<text xml:space="preserve" text-anchor="middle" x="99" y="-103" font-family="Helvetica,sans-Serif" font-size="10.00">→ metering → rating → cost entry</text>
</g>
<!-- metering_resp&#45;&gt;ingest -->
<g id="edge9" class="edge">
<title>metering_resp&#45;&gt;ingest</title>
<path fill="none" stroke="#2e7d32" stroke-dasharray="5,2" d="M165.37,-231.73C108.36,-226.63 42.83,-216.12 24.75,-194.5 10.53,-177.49 25.99,-159.68 46.42,-145.57"/>
<polygon fill="#2e7d32" stroke="#2e7d32" points="48.28,-148.54 54.8,-140.19 44.49,-142.65 48.28,-148.54"/>
<text xml:space="preserve" text-anchor="middle" x="100.88" y="-185.95" font-family="Helvetica,sans-Serif" font-size="9.00" fill="#2e7d32">8. CloudEvent: inference.tokens.used</text>
<text xml:space="preserve" text-anchor="middle" x="100.88" y="-176.2" font-family="Helvetica,sans-Serif" font-size="9.00" fill="#2e7d32">(fire &amp; forget)</text>
</g>
<!-- resp_plugins -->
<g id="node6" class="node">
<title>resp_plugins</title>
<path fill="#ffecb3" stroke="#f57f17" d="M251.5,-351.25C251.5,-351.25 178.5,-351.25 178.5,-351.25 172.5,-351.25 166.5,-345.25 166.5,-339.25 166.5,-339.25 166.5,-327.25 166.5,-327.25 166.5,-321.25 172.5,-315.25 178.5,-315.25 178.5,-315.25 251.5,-315.25 251.5,-315.25 257.5,-315.25 263.5,-321.25 263.5,-327.25 263.5,-327.25 263.5,-339.25 263.5,-339.25 263.5,-345.25 257.5,-351.25 251.5,-351.25"/>
<text xml:space="preserve" text-anchor="middle" x="215" y="-335" font-family="Helvetica,sans-Serif" font-size="10.00">Response plugins:</text>
<text xml:space="preserve" text-anchor="middle" x="215" y="-323.75" font-family="Helvetica,sans-Serif" font-size="10.00">api&#45;translation</text>
</g>
<!-- resp_plugins&#45;&gt;metering_resp -->
<g id="edge8" class="edge">
<title>resp_plugins&#45;&gt;metering_resp</title>
<path fill="none" stroke="#f57f17" d="M222.89,-315.05C229.15,-301.4 238.04,-282.03 245.3,-266.19"/>
<polygon fill="#f57f17" stroke="#f57f17" points="248.4,-267.83 249.39,-257.28 242.04,-264.91 248.4,-267.83"/>
<text xml:space="preserve" text-anchor="middle" x="271.91" y="-281.7" font-family="Helvetica,sans-Serif" font-size="9.00" fill="#f57f17">7. after response</text>
</g>
<!-- llm&#45;&gt;resp_plugins -->
<g id="edge7" class="edge">
<title>llm&#45;&gt;resp_plugins</title>
<path fill="none" stroke="#7b1fa2" d="M746.9,-135.85C741.46,-152.29 731.61,-176.95 717,-194.5 669.71,-251.32 650.47,-264.98 581,-290.25 456.93,-335.38 415.31,-294.05 285,-315.25 281.65,-315.79 278.23,-316.41 274.78,-317.09"/>
<polygon fill="#7b1fa2" stroke="#7b1fa2" points="274.31,-313.61 265.24,-319.08 275.75,-320.46 274.31,-313.61"/>
<text xml:space="preserve" text-anchor="middle" x="761.42" y="-233.82" font-family="Helvetica,sans-Serif" font-size="9.00" fill="#7b1fa2">6. response with usage block</text>
</g>
<!-- balance&#45;&gt;metering_req -->
<g id="edge5" class="edge">
<title>balance&#45;&gt;metering_req</title>
<path fill="none" stroke="#2e7d32" stroke-dasharray="5,2" d="M329.81,-139.41C330.02,-156.35 333.12,-179.72 346.75,-194.5 354.12,-202.49 372.04,-209.75 392.8,-215.91"/>
<polygon fill="#2e7d32" stroke="#2e7d32" points="391.85,-219.28 402.42,-218.62 393.74,-212.54 391.85,-219.28"/>
<text xml:space="preserve" text-anchor="middle" x="389.88" y="-181.07" font-family="Helvetica,sans-Serif" font-size="9.00" fill="#2e7d32">hasAccess: true/false</text>
</g>
</g>
</svg>
